<?xml version="1.0" encoding="utf-8"?>
<!-- Generator: Adobe Illustrator 12.0.0, SVG Export Plug-In  -->
<!DOCTYPE svg PUBLIC "-//W3C//DTD SVG 1.1//EN" "http://www.w3.org/Graphics/SVG/1.1/DTD/svg11.dtd" [
	<!ENTITY ns_flows "http://ns.adobe.com/Flows/1.0/">
	<!ENTITY ns_svg "http://www.w3.org/2000/svg">
	<!ENTITY ns_xlink "http://www.w3.org/1999/xlink">
]>
<svg  version="1.1" xmlns="&ns_svg;" xmlns:xlink="&ns_xlink;" xmlns:a="http://ns.adobe.com/AdobeSVGViewerExtensions/3.0/"
	 width="295" height="60" viewBox="-0.435 -0.679 295 60" enable-background="new -0.435 -0.679 295 60" xml:space="preserve">
<defs>
</defs>
<path fill="#ABABAB" d="M251.517,19.115c4.049,0.95,6.197,3.249,6.498,6.897h3.898c-0.35-4.748-2.85-8.097-7.396-9.996
	c-4.949-1.35-9.396-0.15-13.295,3.499c-2.449,2.898-3.799,6.197-4,9.896c-0.35,3.948-0.35,7.547,0,10.795c0,0.05,0,0.05,0,0.101
	c0,3.448,1.201,6.447,3.65,8.896c2.447,2.449,5.447,3.699,8.895,3.699c3.449,0,6.398-1.25,8.848-3.699
	c2.449-2.448,3.699-5.447,3.699-8.896c0-3.499-1.25-6.498-3.699-8.947c-2.449-2.449-5.398-3.648-8.848-3.648
	c-3.447,0-6.447,1.199-8.895,3.648c-0.15,0.15-0.301,0.35-0.451,0.5c0.1-4.198,1.15-7.547,3.1-9.996
	C245.47,19.415,248.169,18.465,251.517,19.115L251.517,19.115z M256.065,33.709c1.799,1.799,2.699,3.998,2.699,6.547
	s-0.9,4.748-2.699,6.548c-1.799,1.799-3.998,2.699-6.547,2.699c-2.551,0-4.748-0.9-6.549-2.699c-1.799-1.8-2.699-3.999-2.699-6.548
	s0.9-4.748,2.699-6.547c1.801-1.799,3.998-2.699,6.549-2.699C252.067,31.01,254.267,31.91,256.065,33.709L256.065,33.709z"/>
<path fill="#ABABAB" d="M278.206,15.617c-3.648,0-6.748,1.749-9.297,5.248c-2.598,3.499-3.898,7.847-3.898,13.045
	s1.301,9.546,3.898,13.044c2.549,3.499,5.648,5.248,9.297,5.248s6.748-1.749,9.346-5.248c2.549-3.498,3.85-7.847,3.85-13.044
	s-1.301-9.546-3.85-13.045C284.954,17.366,281.854,15.617,278.206,15.617L278.206,15.617z M271.358,23.264
	c1.85-2.899,4.1-4.349,6.848-4.349c2.75,0,5.098,1.45,7.098,4.349c1.949,2.898,2.949,6.497,2.949,10.746
	c0,4.248-0.951,7.847-2.9,10.796c-1.949,2.948-4.297,4.397-7.047,4.397c-2.748,0-5.047-1.449-6.896-4.397
	c-1.9-2.949-2.85-6.548-2.85-10.796C268.56,29.761,269.509,26.162,271.358,23.264L271.358,23.264z"/>
<path fill="#B5BB4D" d="M150.308,16.416c-2.549,0.85-4.798,2.399-6.848,4.648c-3.249,3.599-4.848,7.947-4.848,13.095
	s1.6,9.497,4.848,13.094c2.649,2.949,5.798,4.698,9.346,5.248c0.75,0.15,1.5,0.2,2.35,0.2s1.65-0.05,2.398-0.2
	c3.549-0.55,6.648-2.299,9.297-5.248c3.248-3.598,4.848-7.946,4.898-13.094c-0.051-5.148-1.65-9.496-4.898-13.095
	c-2.049-2.249-4.299-3.799-6.848-4.648c-1.549-0.5-3.148-0.75-4.848-0.75S151.856,15.917,150.308,16.416L150.308,16.416z
	 M155.155,18.965c3.449,0,6.348,1.449,8.797,4.348c2.449,2.949,3.648,6.447,3.648,10.596c0,4.148-1.199,7.647-3.648,10.545
	c-2.449,2.949-5.348,4.398-8.797,4.398s-6.347-1.449-8.796-4.398c-2.449-2.898-3.648-6.397-3.648-10.545
	c0-4.148,1.2-7.647,3.648-10.596C148.808,20.415,151.706,18.965,155.155,18.965L155.155,18.965z"/>
<path fill="#B5BB4D" d="M135.363,25.513c-0.35-5.748-3.249-8.796-8.696-9.097h-17.343V31.26h-4.848l-2.599,3.898h7.447v17.343
	h15.894c2.649-0.149,5.098-0.949,7.347-2.398c2.799-1.85,4.249-4.398,4.348-7.747c-0.05-3.849-1.749-6.947-5.148-9.296
	C134.164,31.66,135.363,29.161,135.363,25.513L135.363,25.513z M130.715,23.563c0.5,1.849,0.4,3.599-0.35,5.148
	c-0.75,1.549-2.549,2.399-5.298,2.549h-11.445V20.115h11.246C128.216,20.515,130.166,21.664,130.715,23.563L130.715,23.563z
	 M125.617,48.003h-11.995V35.159h11.695c1.799,0.1,3.299,0.649,4.448,1.6c1.649,1.249,2.449,2.948,2.399,5.098
	c0,1.649-0.75,3.099-2.199,4.349C128.716,47.253,127.267,47.854,125.617,48.003L125.617,48.003z"/>
<polygon fill="#B5BB4D" points="106.675,16.416 101.677,16.416 91.381,30.311 81.085,16.416 76.087,16.416 88.882,33.659 
	74.888,52.501 79.886,52.501 91.381,37.058 102.876,52.501 107.875,52.501 93.88,33.659 106.675,16.416 "/>
<path fill="#ABABAB" d="M209.833,25.813h3.398c-0.049-0.4-0.049-1.149,0.051-2.299c0.1-1.149,0.949-2.299,2.498-3.499
	c1.551-1.25,3.5-1.849,5.848-1.849c2.35,0,4.398,0.65,6.049,1.899c1.648,1.25,2.498,2.799,2.498,4.598s-0.85,3.349-2.498,4.598
	c-1.65,1.25-3.699,1.899-6.049,1.899c-0.85,0-1.699,0-2.447,0.05v3.549c1.348-0.101,2.697-0.15,4.098-0.15
	c1.35-0.05,2.398,0.1,3.148,0.35c0.699,0.2,1.199,0.45,1.5,0.7c1.85,1.649,2.799,3.549,2.848,5.798c0,2.249-0.898,4.148-2.748,5.647
	c-1.85,1.449-4.049,2.249-6.646,2.399c-2.6,0.149-4.75-0.601-6.498-2.199c-1.75-1.649-2.648-3.149-2.799-4.549
	c-0.15-1.449-0.15-2.398,0-2.948h-3.549c-0.051,0.399-0.1,0.8-0.1,1.249c0,3.049,1.25,5.698,3.697,7.847
	c2.449,2.199,5.449,3.299,8.947,3.299s6.498-1.1,8.947-3.299c2.447-2.148,3.697-4.798,3.697-7.847s-1.25-5.697-3.697-7.896
	c-0.4-0.35-0.801-0.65-1.201-0.95c0.301-0.25,0.6-0.45,0.9-0.7c2.25-1.849,3.398-4.099,3.398-6.748s-1.148-4.898-3.398-6.747
	s-4.998-2.799-8.197-2.799c-3.197,0-5.947,0.95-8.195,2.799c-2.25,1.849-3.4,4.098-3.4,6.747
	C209.933,25.113,209.884,25.462,209.833,25.813L209.833,25.813z"/>
<polygon fill="#B5BB4D" points="194.14,16.416 183.845,30.311 173.548,16.416 168.55,16.416 181.345,33.659 167.351,52.501 
	172.349,52.501 183.845,37.058 195.339,52.501 200.337,52.501 186.343,33.659 199.138,16.416 194.14,16.416 "/>
<polygon fill="#ABABAB" points="292.401,49.453 291.501,49.453 291.501,51.602 292.05,51.602 292.05,49.953 292.45,51.602 
	292.95,51.602 293.351,49.953 293.351,51.602 293.899,51.602 293.899,49.453 293.05,49.453 292.7,50.752 292.401,49.453 "/>
<polygon fill="#ABABAB" points="290.552,50.002 291.2,50.002 291.2,49.453 289.202,49.453 289.202,50.002 289.901,50.002 
	289.901,51.602 290.552,51.602 290.552,50.002 "/>
<polygon fill="#ABABAB" points="60.394,9.219 60.394,7.07 59.544,7.07 59.194,8.37 58.894,7.07 57.994,7.07 57.994,9.219 
	58.544,9.219 58.544,7.57 58.944,9.219 59.444,9.219 59.844,7.57 59.844,9.219 60.394,9.219 "/>
<polygon fill="#ABABAB" points="57.694,7.62 57.694,7.07 55.695,7.07 55.695,7.62 56.395,7.62 56.395,9.219 57.045,9.219 
	57.045,7.62 57.694,7.62 "/>
<radialGradient id="XMLID_1_" cx="22.6777" cy="28.8721" r="20.0393" gradientTransform="matrix(1.0537 0 0 1.0042 -8.1791 -0.9649)" gradientUnits="userSpaceOnUse">
	<stop  offset="0.0112" style="stop-color:#FFFFFF"/>
	<stop  offset="0.3191" style="stop-color:#FDFEFC"/>
	<stop  offset="0.43" style="stop-color:#FBFCF5"/>
	<stop  offset="0.5091" style="stop-color:#F6FAEC"/>
	<stop  offset="0.573" style="stop-color:#F0F6DF"/>
	<stop  offset="0.6278" style="stop-color:#E9F1CF"/>
	<stop  offset="0.6763" style="stop-color:#E1EBB9"/>
	<stop  offset="0.7202" style="stop-color:#D7E5A0"/>
	<stop  offset="0.7605" style="stop-color:#CCDF85"/>
	<stop  offset="0.7964" style="stop-color:#C0D763"/>
	<stop  offset="0.8298" style="stop-color:#B2D03E"/>
	<stop  offset="0.8315" style="stop-color:#B1D03B"/>
	<stop  offset="0.8926" style="stop-color:#8EC541"/>
	<stop  offset="0.9626" style="stop-color:#67BC46"/>
	<stop  offset="1" style="stop-color:#55B748"/>
</radialGradient>
<path fill="url(#XMLID_1_)" d="M11.228,6.338c4.908-1.469,12.016,0.398,18.415,4.664l0.075,29.608
	c-2.347-0.466-4.792-1.439-7.082-2.746c-2.332-1.331-4.667-3.059-7.077-5.104l6.153-15.752C18.519,14.943,6.058,11.434,7.668,9.65
	S11.228,6.338,11.228,6.338z"/>
<radialGradient id="XMLID_2_" cx="-6.4692" cy="28.8721" r="20.0393" gradientTransform="matrix(-1.0537 0 0 1.0042 36.4145 -0.9649)" gradientUnits="userSpaceOnUse">
	<stop  offset="0.0112" style="stop-color:#FFFFFF"/>
	<stop  offset="0.3191" style="stop-color:#FDFEFC"/>
	<stop  offset="0.43" style="stop-color:#FBFCF5"/>
	<stop  offset="0.5091" style="stop-color:#F6FAEC"/>
	<stop  offset="0.573" style="stop-color:#F0F6DF"/>
	<stop  offset="0.6278" style="stop-color:#E9F1CF"/>
	<stop  offset="0.6763" style="stop-color:#E1EBB9"/>
	<stop  offset="0.7202" style="stop-color:#D7E5A0"/>
	<stop  offset="0.7605" style="stop-color:#CCDF85"/>
	<stop  offset="0.7964" style="stop-color:#C0D763"/>
	<stop  offset="0.8298" style="stop-color:#B2D03E"/>
	<stop  offset="0.8315" style="stop-color:#B1D03B"/>
	<stop  offset="0.8926" style="stop-color:#8EC541"/>
	<stop  offset="0.9626" style="stop-color:#67BC46"/>
	<stop  offset="1" style="stop-color:#55B748"/>
</radialGradient>
<path fill="url(#XMLID_2_)" d="M47.715,6.338C42.808,4.869,35.7,6.736,29.3,11.002L29.226,40.61
	c2.347-0.466,4.792-1.439,7.082-2.746c2.332-1.331,4.667-3.059,7.077-5.104l-6.153-15.752c3.193-2.064,15.654-5.573,14.043-7.357
	S47.715,6.338,47.715,6.338z"/>
<radialGradient id="XMLID_3_" cx="252.6436" cy="-111.3442" r="17.894" gradientTransform="matrix(-0.8984 -0.6506 0.8248 -1.0345 347.0444 87.7436)" gradientUnits="userSpaceOnUse">
	<stop  offset="0.0112" style="stop-color:#FFFFFF"/>
	<stop  offset="0.3254" style="stop-color:#FDFEFC"/>
	<stop  offset="0.4386" style="stop-color:#FBFCF5"/>
	<stop  offset="0.5193" style="stop-color:#F6FAEC"/>
	<stop  offset="0.5846" style="stop-color:#F0F6DF"/>
	<stop  offset="0.6405" style="stop-color:#E9F1CF"/>
	<stop  offset="0.69" style="stop-color:#E1EBB9"/>
	<stop  offset="0.7348" style="stop-color:#D7E5A0"/>
	<stop  offset="0.7759" style="stop-color:#CCDF85"/>
	<stop  offset="0.8125" style="stop-color:#C0D763"/>
	<stop  offset="0.8466" style="stop-color:#B2D03E"/>
	<stop  offset="0.8483" style="stop-color:#B1D03B"/>
	<stop  offset="0.8562" style="stop-color:#AACD3D"/>
	<stop  offset="0.8969" style="stop-color:#88C342"/>
	<stop  offset="0.9355" style="stop-color:#6EBD45"/>
	<stop  offset="0.9708" style="stop-color:#5BB947"/>
	<stop  offset="1" style="stop-color:#55B748"/>
</radialGradient>
<path fill="url(#XMLID_3_)" d="M11.193,52.528L27.9,33.617l-6.206-16.592c-2.604,2.165-5.188,4.792-7.582,7.795
	c-5.891,7.388-11,17.781-9.223,20.847C6.667,48.734,11.193,52.528,11.193,52.528z"/>
<radialGradient id="XMLID_4_" cx="86.729" cy="-6.9751" r="17.8947" gradientTransform="matrix(0.8984 -0.6506 -0.8248 -1.0345 -52.935 87.7436)" gradientUnits="userSpaceOnUse">
	<stop  offset="0.0112" style="stop-color:#FFFFFF"/>
	<stop  offset="0.3254" style="stop-color:#FDFEFC"/>
	<stop  offset="0.4386" style="stop-color:#FBFCF5"/>
	<stop  offset="0.5193" style="stop-color:#F6FAEC"/>
	<stop  offset="0.5846" style="stop-color:#F0F6DF"/>
	<stop  offset="0.6405" style="stop-color:#E9F1CF"/>
	<stop  offset="0.69" style="stop-color:#E1EBB9"/>
	<stop  offset="0.7348" style="stop-color:#D7E5A0"/>
	<stop  offset="0.7759" style="stop-color:#CCDF85"/>
	<stop  offset="0.8125" style="stop-color:#C0D763"/>
	<stop  offset="0.8466" style="stop-color:#B2D03E"/>
	<stop  offset="0.8483" style="stop-color:#B1D03B"/>
	<stop  offset="0.8562" style="stop-color:#AACD3D"/>
	<stop  offset="0.8969" style="stop-color:#88C342"/>
	<stop  offset="0.9355" style="stop-color:#6EBD45"/>
	<stop  offset="0.9708" style="stop-color:#5BB947"/>
	<stop  offset="1" style="stop-color:#55B748"/>
</radialGradient>
<path fill="url(#XMLID_4_)" d="M47.763,52.502l-16.707-18.91L37.262,17c2.604,2.165,5.188,4.792,7.582,7.795
	c5.89,7.389,11,17.78,9.223,20.847C52.289,48.708,47.763,52.502,47.763,52.502z"/>
<radialGradient id="XMLID_5_" cx="26.8237" cy="21.5273" r="52.1664" gradientUnits="userSpaceOnUse">
	<stop  offset="0.0281" style="stop-color:#FFFFFF"/>
	<stop  offset="0.1594" style="stop-color:#CDCED0"/>
	<stop  offset="0.2894" style="stop-color:#A5A8AA"/>
	<stop  offset="0.388" style="stop-color:#8E9093"/>
	<stop  offset="0.4438" style="stop-color:#86888B"/>
	<stop  offset="0.5077" style="stop-color:#8A8C8E"/>
	<stop  offset="0.5826" style="stop-color:#949699"/>
	<stop  offset="0.6631" style="stop-color:#A6A8AB"/>
	<stop  offset="0.747" style="stop-color:#C1C3C5"/>
	<stop  offset="0.809" style="stop-color:#D9DBDC"/>
</radialGradient>
<path fill="url(#XMLID_5_)" d="M6.442,47.817C2.411,42.786,0,36.399,0,29.45c0-7.762,3.008-14.822,7.922-20.077
	c0,0,5.144,2.277,13.811,7.61C2.4,36.983,6.442,47.817,6.442,47.817z M29.485,11.313c-0.012-0.008-0.019-0.014-0.019-0.014
	c11.8-8.5,19.128-4.227,19.128-4.227C43.453,2.664,36.771,0,29.466,0C22.162,0,15.48,2.664,10.338,7.072
	c0,0,7.328-4.373,19.123,4.227 M8.183,49.749c5.355,5.617,12.911,9.118,21.284,9.118c8.39,0,15.959-3.515,21.316-9.151
	c0,0-3.116-12.85-21.416-26.349C12.966,35.466,8.183,49.749,8.183,49.749z M52.524,47.817c4.031-5.031,6.442-11.418,6.442-18.367
	c0-7.762-3.008-14.822-7.922-20.077c0,0-5.144,2.277-13.811,7.61C56.566,36.983,52.524,47.817,52.524,47.817z"/>
</svg>
