<?xml version="1.0" encoding="UTF-8" standalone="no"?>
<!-- Created with Inkscape (http://www.inkscape.org/) -->

<svg
   xmlns:ns="http://ns.adobe.com/SaveForWeb/1.0/"
   xmlns:dc="http://purl.org/dc/elements/1.1/"
   xmlns:cc="http://creativecommons.org/ns#"
   xmlns:rdf="http://www.w3.org/1999/02/22-rdf-syntax-ns#"
   xmlns:svg="http://www.w3.org/2000/svg"
   xmlns="http://www.w3.org/2000/svg"
   version="1.1"
   width="990.56201"
   height="120.81"
   viewBox="0 0 990.562 120.81"
   id="svg2"
   xml:space="preserve"><defs
   id="defs28" />
<metadata
   id="metadata7">
	<rdf:RDF>
		<cc:Work
   rdf:about="">
			<dc:format>image/svg+xml</dc:format>
			<dc:type
   rdf:resource="http://purl.org/dc/dcmitype/StillImage" />
			<dc:title></dc:title>
		</cc:Work>
	</rdf:RDF>
	<ns:sfw>
		<ns:slices />
		<ns:sliceSourceBounds
   bottomLeftOrigin="true"
   height="120.809"
   width="990.562"
   x="-202.828"
   y="383.641">
			</ns:sliceSourceBounds>
	</ns:sfw>
	<ns:sfw>
		<ns:slices />
		<ns:sliceSourceBounds
   bottomLeftOrigin="true"
   height="120.81"
   width="990.562"
   x="381.274"
   y="83.733" />
	</ns:sfw>
</metadata>
<path
   d="m 990.56199,112.306 c 0,4.694 -3.808,8.504 -8.504,8.504 H 8.5039864 c -4.696,0 -8.504000016381,-3.81 -8.504000016381,-8.504 V 8.505 C -1.3616381e-5,3.809 3.8079864,0 8.5039864,0 H 982.05799 c 4.696,0 8.504,3.809 8.504,8.505 v 103.801 l 0,0 z"
   id="path4" />
<linearGradient
   x1="895.85522"
   y1="-429.6785"
   x2="1304.7458"
   y2="-429.6785"
   id="path21_1_"
   gradientUnits="userSpaceOnUse"
   gradientTransform="matrix(1,0,0,-1,-499.53211,-370.1847)">
	<stop
   id="stop6"
   style="stop-color:#f50019;stop-opacity:1"
   offset="0" />
	<stop
   id="stop8"
   style="stop-color:#f66d19;stop-opacity:1"
   offset="0.27610001" />
	<stop
   id="stop10"
   style="stop-color:#fbfa35;stop-opacity:1"
   offset="0.47850001" />
	<stop
   id="stop12"
   style="stop-color:#74b719;stop-opacity:1"
   offset="0.68099999" />
	<stop
   id="stop14"
   style="stop-color:#17710a;stop-opacity:1"
   offset="0.79140002" />
	<stop
   id="stop16"
   style="stop-color:#226887;stop-opacity:1"
   offset="0.88340002" />
	<stop
   id="stop18"
   style="stop-color:#3262d9;stop-opacity:1"
   offset="1" />
</linearGradient>
<path
   d="m 396.32299,26.902 h 32.957 c 21.728,0 29.396,16.067 29.396,32.501 0,19.993 -10.59,32.684 -33.322,32.684 h -29.03 V 26.902 l -10e-4,0 z m 20.084,48.477 h 7.852 c 12.507,0 14.333,-10.134 14.333,-16.25 0,-4.108 -1.278,-15.521 -15.794,-15.521 h -6.391 v 31.771 z m 49.114,-48.477 h 38.253 c 11.411,0 21.271,6.3 21.271,18.624 0,6.756 -3.104,13.877 -9.768,16.342 5.478,2.101 8.854,8.125 9.585,16.25 0.273,3.195 0.364,10.955 2.19,13.968 h -20.084 c -1.005,-3.286 -1.37,-6.663 -1.644,-10.042 -0.548,-6.208 -1.097,-12.689 -9.039,-12.689 h -10.683 v 22.733 h -20.084 l 0,-65.186 0,0 z m 20.084,28.483 h 10.499 c 3.743,0 8.856,-0.64 8.856,-6.481 0,-4.107 -2.282,-6.481 -9.952,-6.481 h -9.403 v 12.962 l 0,0 z m 69.291,-28.483 h 19.628 l 23.736,65.184 h -20.814 l -2.738,-9.312 h -20.725 l -2.922,9.312 h -20.176 l 24.011,-65.184 0,0 z m 15.793,41.903 -5.843,-20.084 h -0.183 l -6.299,20.084 h 12.325 z m 77.962,16.617 c -4.474,5.75 -11.411,8.215 -18.531,8.215 -19.265,0 -31.132,-14.972 -31.132,-33.504 0,-24.831 17.438,-34.782 32.136,-34.782 16.615,0 27.114,9.038 30.035,24.375 h -19.264 c -0.729,-4.747 -4.746,-8.125 -9.493,-8.125 -13.785,0 -13.329,14.516 -13.329,18.989 0,6.115 2.465,16.798 14.697,16.798 4.656,0 9.403,-2.374 10.407,-7.212 h -8.854 V 56.207 h 26.658 v 35.879 h -12.69 l -0.64,-6.664 0,0 z m 56.234,-60.072 c 19.812,0 33.048,14.241 33.048,34.144 0,19.903 -13.237,34.144 -33.048,34.144 -19.811,0 -33.049,-14.241 -33.049,-34.144 0,-19.902 13.239,-34.144 33.049,-34.144 z m 0,52.037 c 5.112,0 12.964,-3.378 12.964,-17.895 0,-14.516 -7.852,-17.894 -12.964,-17.894 -5.112,0 -12.964,3.378 -12.964,17.894 0,14.517 7.853,17.895 12.964,17.895 z m 41.627,-50.485 h 20.541 l 18.989,34.874 h 0.183 V 26.902 h 18.989 v 65.184 h -19.537 l -19.993,-35.604 h -0.183 v 35.604 h -18.989 V 26.902 z"
   id="path21"
   style="fill:url(#path21_1_)" />
<path
   d="m 824.01699,49.725 c 0.093,-7.485 3.104,-12.964 7.942,-16.615 4.839,-3.561 11.412,-5.295 18.533,-5.295 18.439,0 24.558,10.955 24.558,16.342 0,13.328 -8.399,13.328 -8.399,13.604 v 0.183 c 0,0.73 10.408,0.73 10.408,14.881 0,7.76 -5.843,19.994 -26.658,19.994 -28.573,0 -28.666,-20.085 -28.21,-24.833 h 17.347 c -0.092,3.378 0.729,5.936 2.466,7.577 1.733,2.1 4.382,2.83 7.577,2.83 5.203,0 8.489,-1.917 8.489,-7.12 0,-5.569 -4.291,-6.573 -8.489,-6.573 -2.647,0 -3.927,0.273 -5.295,0.456 V 52.739 c 1.368,0.092 2.829,0.365 5.295,0.365 3.834,0 8.673,-0.821 8.673,-5.751 0,-4.019 -4.564,-5.569 -8.309,-5.569 -4.93,0 -8.946,2.647 -8.765,7.942 l -17.163,-10e-4 0,0 z m 56.874,5.569 c -1.005,-17.438 9.859,-27.479 26.933,-27.479 15.428,0 25.927,6.481 25.927,19.993 0,16.25 -15.885,21.362 -27.845,28.666 v 0.092 h 28.758 v 15.521 h -55.05 c -0.365,-6.117 1.461,-11.413 4.563,-15.703 5.295,-7.396 14.425,-12.233 22.55,-17.163 3.286,-2.009 8.581,-4.565 8.581,-9.222 0,-5.752 -3.378,-7.76 -7.668,-7.76 -7.304,0 -9.769,5.295 -9.586,13.055 h -17.163 l 0,0 z"
   id="path23"
   style="fill:#ffffff" />
<path
   d="m 714.04199,100.238 h 5.784 c 3.812,0 5.159,2.818 5.159,5.703 0,3.51 -1.859,5.736 -5.85,5.736 h -5.095 l 0,-11.439 0,0 z m 3.527,8.508 h 1.377 c 2.194,0 2.516,-1.778 2.516,-2.854 0,-0.721 -0.225,-2.724 -2.771,-2.724 h -1.121 v 5.578 l -10e-4,0 z m 12.115,-8.508 h 3.444 l 4.166,11.439 h -3.653 l -0.479,-1.636 h -3.638 l -0.513,1.636 h -3.541 l 4.214,-11.439 0,0 z m 2.771,7.354 -1.025,-3.525 h -0.032 l -1.104,3.525 h 2.161 z m 7.214,-4.422 h -3.204 v -2.933 h 9.934 v 2.933 h -3.205 v 8.508 h -3.523 l 0,-8.508 0,0 z m 10.018,-2.932 h 3.444 l 4.166,11.439 h -3.653 l -0.479,-1.636 h -3.637 l -0.514,1.636 h -3.541 l 4.214,-11.439 0,0 z m 2.771,7.354 -1.025,-3.525 h -0.032 l -1.104,3.525 h 2.161 z m 19.956,-7.354 h 3.524 v 8.508 h 5.062 v 2.933 h -8.588 l 0,-11.441 0,0 z m 10.704,2.932 h -3.203 v -2.933 h 9.934 v 2.933 h -3.205 v 8.508 h -3.523 v -8.508 h 0 z m 8.031,-2.932 h 5.784 c 3.812,0 5.159,2.818 5.159,5.703 0,3.51 -1.858,5.736 -5.849,5.736 h -5.096 l 0,-11.439 0,0 z m 3.525,8.508 h 1.377 c 2.195,0 2.516,-1.778 2.516,-2.854 0,-0.721 -0.224,-2.724 -2.771,-2.724 h -1.121 l -10e-4,5.578 0,0 z m 9.041,-0.24 h 3.332 v 3.172 h -3.332 v -3.172 z"
   id="path25"
   style="fill:#dedede" />
<path
   d="m 146.09699,62.114 h -9.885 l 23.531,-40.754 c 4.539,-7.904 13.013,-12.813 22.12,-12.813 h 48.625 l -4.942,8.56 h -43.683 c -6.059,0 -11.695,3.272 -14.702,8.523 l -21.064,36.484 z m 26.479,-33.367 c 1.904,-3.327 5.463,-5.394 9.288,-5.394 h 40.075 l 2.138,-3.702 h -42.213 c -5.148,0 -9.938,2.781 -12.497,7.251 l -20.33,35.212 h 4.274 l 19.265,-33.367 z m 3.745,15.722 h 33.427 l 5.78,-10.011 1.759,-3.048 3.184,-5.513 h -38.606 c -2.915,0 -5.628,1.576 -7.08,4.113 l -18.535,32.103 h 9.885 l 10.186,-17.644 z m -75.955,0 c -0.006,0.07 -0.01,0.102 -0.008,0.102 -0.078,0.264 -0.438004,1.023 -1.698004,3.137 -2.663,4.47 -5.387,10.056 -5.388,17.589 0,14.063 11.441004,25.505 25.505004,25.505 h 97.113 l -10.081,17.461 h 9.885 l 7.918,-13.715 c 0.743,-1.251 1.135,-2.687 1.135,-4.152 0,-4.496 -3.657,-8.153 -8.153,-8.153 h -97.816 c -9.344,0 -16.945,-7.602 -16.945,-16.945 0,-5.138 1.672,-8.996 4.183,-13.206 2.335,-3.92 2.923,-5.273 2.922,-8.028 0,-4.495 -3.657,-8.152 -8.152,-8.152 H 72.102986 l 4.941,8.56 h 23.322004 z m 116.227,31.527 h -97.816 c -5.898,0 -10.698,-4.8 -10.698,-10.699 10e-4,-3.259 0.896,-5.972 3.301,-10.008 2.586,-4.339 3.804,-6.861 3.804,-11.227 0,-7.938 -6.459,-14.398 -14.399,-14.398 H 61.338986 l -1.394,-2.412 -9.355,4.23 14.477,4.641 -1.592,-2.758 h 37.310004 c 5.899,0 10.697,4.8 10.697,10.697 0.001,3.321 -0.738,5.063 -3.281,9.33 -2.751,4.615 -3.822,7.953 -3.822,11.904 0,7.94 6.46,14.4 14.399,14.4 h 97.816 c 5.899,0 10.698,4.8 10.698,10.698 0,1.922 -0.516,3.808 -1.502,5.471 l -7.157,12.396 h 4.273 l 6.078,-10.526 c 1.314,-2.216 2.01,-4.754 2.01,-7.341 0,-7.939 -6.46,-14.398 -14.401,-14.398 z m -88.662,17.583 h -9.884 l -8.479,14.684 h 9.885 l 8.478,-14.684 z m -1.265,14.683 8.478,-14.684 h -4.273 l -8.478,14.684 h 4.273 z m 21.301,-14.683 h -9.885 l -8.478,14.684 h 9.884 l 8.479,-14.684 z m 68.626,-28.689 h -97.396 c 0.052,-0.625 0.322,-1.566 1.722,-3.917 3.043,-5.104 5.37,-9.592 5.37,-16.911 0,-14.063 -11.44,-25.505 -25.505,-25.505 h -0.67 l -5.640004,5.641 -5.64,-5.641 h -26.753 l 4.943,8.561 h 33.759004 c 9.344,0 16.944,7.602 16.944,16.944 0.001,5.171 -1.572,8.182 -4.163,12.529 -2.171,3.644 -2.941,5.922 -2.941,8.706 0,4.495 3.658,8.153 8.153,8.153 h 97.816 c 9.344,0 16.945,7.601 16.945,16.944 0,3.035 -0.813,6.013 -2.352,8.615 l -5.342,9.252 h 9.885 l 2.85,-4.938 c 2.302,-3.911 3.519,-8.38 3.519,-12.93 0.001,-14.061 -11.44,-25.503 -25.504,-25.503 z m -113.663,-47.419 -8.456004,-8.455 -8.455,8.455 h 3.926 l 4.529,-4.529 4.53,4.529 h 3.926004 z"
   id="path24"
   style="fill:#f50019" />
</svg>