<svg id="Layer_1" data-name="Layer 1" xmlns="http://www.w3.org/2000/svg" viewBox="0 0 1162.2 141.73"><defs><style>.cls-1{fill:#cf8e44;}.cls-2{fill:#fff;}</style></defs><title>FULL COLOR BLACK</title><g id="FULL_COLOR_BLACK" data-name="FULL COLOR BLACK"><g id="LETTERS_WHITE" data-name="LETTERS WHITE"><polygon points="226.77 0 170.08 0 170.08 141.73 255.12 141.73 255.12 56.69 226.77 56.69 226.77 113.39 198.43 113.39 198.43 28.35 226.77 28.35 226.77 0"/><path d="M283.46,0V141.73h28.35V85h28.35v56.69H368.5V0Zm56.69,56.69H311.81V28.35h28.35Z"/><polygon points="396.85 141.73 396.85 0 538.58 0 538.58 141.73 510.24 141.73 510.24 28.35 481.89 28.35 481.89 141.73 453.54 141.73 453.54 28.35 425.2 28.35 425.2 141.73 396.85 141.73"/><polygon points="566.93 141.73 566.93 0 651.97 0 651.97 28.35 595.28 28.35 595.28 56.69 651.97 56.69 651.97 85.04 595.28 85.04 595.28 113.39 651.97 113.39 651.97 141.73 566.93 141.73"/><polygon points="708.66 56.69 708.66 28.35 737.01 28.35 737.01 56.69 765.35 56.69 765.35 0 680.32 0 680.32 141.73 765.35 141.73 765.35 85.04 737.01 85.04 737.01 113.39 708.66 113.39 708.66 85.04 737.01 85.04 737.01 56.69 708.66 56.69"/><polygon points="793.7 0 822.05 0 822.05 113.39 850.39 113.39 850.39 0 878.74 0 878.74 141.73 793.7 141.73 793.7 0"/><rect x="907.09" width="28.35" height="141.73"/><polygon points="963.78 0 1048.82 0 1048.82 141.73 1020.47 141.73 1020.47 28.35 992.13 28.35 992.13 141.73 963.78 141.73 963.78 0"/><path d="M1077.17,0V141.73h85V0Zm56.69,113.39h-28.35v-85h28.35Z"/></g><g id="LOGO_COLOR" data-name="LOGO COLOR"><rect class="cls-1" width="141.73" height="141.73"/><polygon class="cls-2" points="77.05 0 77.05 40.32 117.38 40.32 117.38 52.84 24.36 52.84 24.36 40.46 64.68 40.46 64.68 0 77.05 0"/><path class="cls-2" d="M48.06,80.55a51.14,51.14,0,0,1,16.61-4.68v28.71H77.05V75.83a53.31,53.31,0,0,1,31.47,15l8.57-8.51C91,55.44,47,58.22,24.76,82.43l8.51,8.47a52.81,52.81,0,0,1,14.8-10.34"/><rect class="cls-2" x="64.68" y="116.97" width="12.38" height="12.38"/></g></g></svg>