<svg version="1.1" xmlns="http://www.w3.org/2000/svg" xmlns:xlink="http://www.w3.org/1999/xlink" width="423.22956" height="72.02608" viewBox="0,0,423.22956,72.02608"><g transform="translate(-38.49995,-134.58492)"><g data-paper-data="{&quot;isPaintingLayer&quot;:true}" fill="#000000" fill-rule="nonzero" stroke="none" stroke-width="1" stroke-linecap="butt" stroke-linejoin="miter" stroke-miterlimit="10" stroke-dasharray="" stroke-dashoffset="0" font-family="none" font-weight="none" font-size="none" text-anchor="none" style="mix-blend-mode: normal"><path d="M38.49995,147.60097h13.17991c3.02298,0 6.57502,2.81177 8.18144,4.37339l23.15123,25.67286v-30.04625h7.8593v40.99679h-13.77084c-2.44483,-0.05546 -4.86833,-0.58667 -7.68437,-3.33871l-23.08936,-25.72834v29.07131h-7.82516v-41.00106z" data-paper-data="{&quot;origPos&quot;:null}" id="path547"/><path d="M202.4978,188.87936c-9.42732,1.29922 -18.93785,1.41869 -28.5081,0.61655c-5.59794,-0.46934 -11.06148,-1.64269 -16.09834,-4.25606c-6.32115,-3.28324 -8.32864,-10.66681 -8.25397,-17.37196c0.06826,-6.18462 1.91362,-12.75536 7.41129,-16.35007c3.61178,-2.35736 7.46464,-3.16591 11.58842,-3.89339c11.19161,-1.96909 22.37895,-1.52962 33.31456,-0.3392v5.84114c-12.88763,-2.4875 -26.47714,-1.86882 -31.10654,4.04699c-2.88217,3.67151 -3.27898,7.33662 -3.27898,10.42147c0,5.56381 1.89016,13.97992 13.16711,15.63114c7.38569,1.08374 14.65619,0.23681 21.76668,-1.02614v6.67955z" data-paper-data="{&quot;origPos&quot;:null}" id="path549"/><path d="M121.8525,182.48995c1.11788,0.05546 18.88451,0.11307 24.97526,0v6.14621c-12.28389,0.48001 -24.08778,0.67414 -36.46981,0.16214c-10.5132,-0.4352 -12.32442,-5.72594 -12.53563,-10.80334v-30.39399h48.40596v5.84328h-31.2964v10.43854h28.51877v5.69394h-28.51877c-0.01493,3.08484 0.08107,6.57288 0.10667,7.20222c0.1728,3.98299 2.01603,5.46567 6.81396,5.71101" data-paper-data="{&quot;origPos&quot;:null}" id="path551"/><text transform="translate(223.33334,188.4289) scale(1.5607,1.5607)" font-size="40" xml:space="preserve" data-paper-data="{&quot;origPos&quot;:null}" fill="#000000" fill-rule="nonzero" stroke="none" stroke-width="1" stroke-linecap="butt" stroke-linejoin="miter" stroke-miterlimit="10" stroke-dasharray="" stroke-dashoffset="0" font-family="&quot;ヒラギノ角ゴ Pro W3&quot;, &quot;Hiragino Kaku Gothic Pro&quot;, Osaka, &quot;メイリオ&quot;, Meiryo, &quot;ＭＳ Ｐゴシック&quot;, &quot;MS PGothic&quot;" font-weight="normal" text-anchor="start" style="mix-blend-mode: normal"><tspan x="0" dy="0">PC-6001</tspan></text></g></g></svg>